<?xml version="1.0" encoding="UTF-8"?>
<!DOCTYPE svg PUBLIC "-//W3C//DTD SVG 1.1//EN" "http://www.w3.org/Graphics/SVG/1.1/DTD/svg11.dtd">
<!-- Creator: CorelDRAW 2018 (64-Bit) -->
<svg xmlns="http://www.w3.org/2000/svg" xml:space="preserve" width="83.5084mm" height="24.2431mm" version="1.1" style="shape-rendering:geometricPrecision; text-rendering:geometricPrecision; image-rendering:optimizeQuality; fill-rule:evenodd; clip-rule:evenodd"
viewBox="0 0 8188.56 2377.2"
 xmlns:xlink="http://www.w3.org/1999/xlink">
 <defs>
  <style type="text/css">
   <![CDATA[
    .fil0 {fill:#00AFEF;fill-rule:nonzero}
   ]]>
  </style>
 </defs>
 <g id="Layer_x0020_1">
  <metadata id="CorelCorpID_0Corel-Layer"/>
  <path class="fil0" d="M2325.17 744.32c25.08,0 46.65,9.28 64.77,27.86 18.1,18.57 27.15,40.38 27.15,65.46l0 701.9c0,25.99 -9.05,48.06 -27.15,66.18 -18.12,18.09 -39.68,27.15 -64.77,27.15 -26.91,0 -49.43,-9.06 -67.55,-27.15 -18.09,-18.12 -27.15,-40.18 -27.15,-66.18l0 -701.9c0,-25.08 9.06,-46.89 27.15,-65.46 18.12,-18.58 40.64,-27.86 67.55,-27.86zm-2109.44 1213.98l-215.72 -597.95 416.14 376.33 -200.42 221.62zm1478.99 -1540.79l215.71 597.96 -416.13 -376.34 200.42 -221.62zm-1668.33 908.68l416.13 376.34 194.42 -214.98 -28.37 0 -1.84 -12.97c0,-5 0.88,-5.11 1.84,-9.26l48.48 0 23.46 -25.95 -71.94 0 0 -44.46 24.09 0c0.63,-7.62 1.85,-4.14 1.85,-11.12 0,-7.44 -1.32,-5.93 -1.32,-11.11 0,-4.89 1.16,-3.93 1.32,-11.12l55.58 0 0 -29.64 -38.91 0 0 -61.14c17.15,0 40.76,4.28 40.76,-5.56l0 -92.63c36.54,0 27.79,-5.55 27.79,40.76l29.64 0 0 27.79 46.31 0c0,-6.86 -4.09,-29.64 5.56,-29.64 22.96,0 62.59,-2.99 83.37,1.85l0 0.32 24.98 -27.61c-0.75,-0.31 -1.65,-0.5 -2.75,-0.5l-155.62 0 0 -29.64 -29.64 0 0 -38.9c0,-13.52 24.08,2.4 24.08,-11.12l0 -18.52c32.2,0 24.08,2.52 24.08,-33.35l66.7 0 0 40.75 48.17 0 0 -25.94 27.79 0c0,-35.45 6.93,-31.5 -27.79,-31.5l0 -27.79 -66.7 0 0 -29.64 -31.5 0 0 -74.1 38.91 0 0 -90.78 40.76 0 0 31.5 16.67 0 0 29.64c6.87,0 29.64,-4.1 29.64,5.56 0,79.3 8.16,68.54 -24.08,68.54 -19.85,0 19.21,-42.32 -35.2,-29.64 0,69.55 -14.5,57.43 59.29,57.43l0 29.64c2.56,-0.05 6.03,-0.47 7.76,-0.53 7.98,-0.29 21.89,3.19 21.89,-5.02l0 -155.63 -29.64 0 0 -29.64c-33.79,0 -27.79,4.49 -27.79,-29.64l-25.94 0c-0.2,-8.84 -1.79,-6.14 -1.36,-15.05 0.16,-3.16 1.22,-6.26 1.36,-12.74 5.18,2.48 24.08,5.35 24.08,-3.71l0 -59.29 23.5 -0.88c4.72,-0.27 2.33,0.35 7.99,-0.97l0 -94.49c6.73,0 27.79,3.94 27.79,-5.56l0 -111.16 33.35 0c2.06,8.83 0,88.39 0,103.75 0,6.38 1.37,7.17 1.85,12.96l25.94 0c0.7,8.36 1.92,12.85 1.86,24.07l-0.03 51.9c-0.24,27.5 0,17.9 29.66,20.37 0,20.87 -2.28,47.09 1.85,64.84l24.08 0 0 25.94c-33.79,0 -27.79,-4.5 -27.79,29.64l-27.79 0 0 29.64 -29.64 0 0 159.32c36.24,8.44 29.6,-3.95 30.02,-16.16 0.33,-9.47 0.03,-11.65 10.5,-11.82 60.13,-0.91 48.4,15.39 48.4,-59.1 -35.24,0 -29.64,-3.78 -29.64,29.64 -39.12,9.12 -29.58,-5.54 -29.64,-38.91 -0.07,-34.97 -4.66,-33.34 29.64,-33.34 0,-28.08 -6.83,-29.64 16.67,-29.64 0,-7.01 -4.23,-31.5 5.56,-31.5 12.03,0 37.06,-4.29 37.06,5.56l0 85.22 38.91 1.85 0 31.5 509 -562.83 -416.14 -376.34 -1199.35 1326.19zm668.33 97.47l27.15 -30.02 -28.07 1.27c0,10.24 0.93,20.6 0.92,28.74zm50.98 -56.36l5.18 -5.73 -5.21 0 0.03 5.73zm269.9 -298.45l53.62 -59.29 -34.54 0 0 22.24c0,13.86 -29.64,-2.76 -29.64,11.11l0 25.94 10.56 0zm869.29 -25.15l-416.13 -376.34 -349.7 386.68 28.63 0c0,11.01 -0.57,22.94 1.85,33.35l22.23 0c0,27.46 -3.37,24.08 24.09,24.08l0 44.46c-35.2,0 -29.64,-5.55 -29.64,29.64l-159.33 0 0 27.79c-10.22,2.38 -18.7,0 -29.64,0l0 87.07c34.72,0 27.79,-3.95 27.79,31.5l29.64 0 1.85 29.64 27.79 0 0 -59.29 -29.64 0 0 -29.64 -24.08 0c-10.52,0 -5.21,-23.22 -3.71,-29.64l25.94 0 1.85 -31.5c26.11,0 64.89,-3.31 87.07,1.85 0,8.66 -3.49,27.79 5.56,27.79 48.69,0 42.61,8.7 42.61,-27.79l27.8 0 1.84 -16.67c0,-2.06 -6.96,-24.09 5.56,-24.09 6.22,0 22.24,-3.65 22.24,5.57l0 92.62 40.75 0 0 61.14 -38.91 0 -1.24 20.54c0.19,3.1 0.75,3.13 1.24,9.1l55.59 0 0 33.35 25.93 0 0 44.46 -85.21 0 0 -44.46c-10.77,0 -15.4,-1.92 -27.78,-1.89 -10.02,0.04 -18.48,1.23 -24.1,0.04 -0.65,-7.74 -1.01,-3.86 -0.88,-11.8l-0.97 -19.7 -27.79 0 0 27.79c0,11.98 -20.38,-4.43 -20.38,9.27l0 40.75 -324.21 0c-5.88,0 -6.54,-12.42 -6.24,-24.98l-46.06 50.93 563.62 0 0 22.23 -583.72 0 -26.81 29.64 47.33 0c3.49,14.97 1.85,32.56 1.85,48.17l88.93 0c0,-27.19 -4.24,-48.17 5.56,-48.17l235.29 0 0 48.17 90.77 0 0 -48.17 114.87 0c4.27,0 5.55,1.28 5.55,5.56l0 105.6 -18.52 0 0 31.5c-51.9,0 -48.46,-3.8 -48.33,12.81 0.05,6.23 0.17,12.43 0.17,18.69 -4.77,2.28 -11.3,3.71 -18.53,3.71 -29.62,0 -26.19,-5.81 -26.08,10.93 0.16,25.1 6,31.69 -23.15,27.19 -8.63,-1.33 -15.56,-1.07 -24.87,-1.07 -63.58,0 -61.7,11.04 -61.15,-16.67 0.21,-10.15 -0.04,-12.61 -1.84,-20.39 -15.76,0 -31.85,1.45 -42.62,-3.71 0,-39.23 9.86,-31.5 -48.17,-31.5l0 -31.5 -35.2 0c-1.59,6.84 0,20.99 0,27.79 0,6.99 -33.28,3.14 -40.99,3.47 -12.87,0.56 -9.03,2.98 -9.03,33.58 -8.72,2.03 -39.77,0.9 -40.05,1.1 -7.83,5.58 -0.38,39.65 -8.12,39.65 -6.74,0 -3.24,-0.94 -10.34,-1.07l-54.51 -0.77c-7.31,0 -8.46,1.3 -12.97,1.3l-25.94 -1.3c0,-10.62 -1.61,-15.58 -1.67,-27.99 -0.09,-17.87 -4.97,-9.07 -15,-9.07l-27.79 -1.85 0 -31.5c-11.5,-2.68 -29.27,-2.13 -42.57,-1.36 -9.41,0.54 -7.46,5.21 -7.46,-31.99 -13.28,0 -18.52,1.82 -18.52,-5.56l0 -24.78 -364.32 402.85 416.14 376.34 1205.97 -1333.5zm-802.04 50.38l-0.64 0.71 0.64 0 0 -0.71zm-140.51 155.36l-87.37 96.61 0 15.52c33.79,0 27.79,4.5 27.79,-29.64l29.64 0c2.54,-10.87 0.97,-20.8 1.85,-31.5 32.08,0 29.25,8.54 28.08,-50.99zm6080.9 99.99l9.5 0 0 -9.5 -9.5 0 0 9.5zm-1750.83 -386.11c-16.84,4.64 -30.84,10.93 -40.46,18.75 13.08,6.62 26.29,12.87 39.63,18.6l1.12 0.48 0.56 0.24 0.55 0.24 1.12 0.47 0.08 0.03 1.04 0.44 0.71 0.29 0.41 0.17 1.12 0.47 0.22 0.09 0.9 0.37 0.84 0.34 0.27 0.12 1.12 0.45 0.35 0.15 0.76 0.31 0.99 0.39 0.13 0.06 1.13 0.45 0.5 0.2 0.62 0.25 1.13 0.45 0.01 0 1.12 0.44 0.64 0.25 0.48 0.19 1.13 0.44 0.15 0.06 0.98 0.37 0.78 0.3 0.34 0.13 1.13 0.43 0.29 0.11 0.83 0.31 0.93 0.35 0.21 0.07 1.13 0.42 0.43 0.16 0.7 0.26 1.07 0.39 0.07 0.02 1.13 0.41 0.58 0.21 0.56 0.21 1.14 0.4 0.08 0.03 1.06 0.37 0.72 0.25 0.42 0.15 1.14 0.4 0.22 0.08 0.92 0.31 0.85 0.3 0.28 0.09 1.14 0.39 0.36 0.13 0.78 0.25 1 0.34 0.14 0.04 1.15 0.38 0.5 0.17 0.64 0.22 1.15 0.37 0.01 0 1.14 0.37 0.65 0.21 0.5 0.16 1.15 0.37 0.15 0.05 1 0.31 0.79 0.25 0.35 0.11 1.15 0.36 0.29 0.09 0.86 0.26 0.94 0.28 0.21 0.06 1.16 0.35 0.43 0.13 0.73 0.22 1.08 0.32 0.07 0.02 1.16 0.33 0.59 0.17 0.57 0.17 1.16 0.33 0.08 0.02 1.09 0.3 0.73 0.21 0.43 0.12 1.16 0.32 0.23 0.06 0.94 0.26 0.87 0.24 0.28 0.08 1.17 0.3 0.36 0.1 0.8 0.22 1.02 0.26 0.15 0.04 1.17 0.3 0.51 0.13 0.66 0.17 1.17 0.29 1.02 0.25 0.85 0.21 0.17 0.05 1.02 0.25 0.69 0.17 0.33 0.08 1.02 0.25 0.53 0.13 0.49 0.11 1.03 0.25 0.36 0.08 0.66 0.16 1.03 0.23 0.2 0.05 0.82 0.19 1.03 0.23 0.03 0.01 1 0.22 0.89 0.2 0.14 0.03 1.03 0.22 0.73 0.16 0.3 0.06 1.03 0.22 0.56 0.12 0.47 0.1 1.03 0.21 0.4 0.08 0.64 0.13 1.03 0.21 0.24 0.04 0.8 0.16 1.04 0.2 0.06 0.01 0.97 0.19 0.93 0.17 0.11 0.03 1.04 0.19 0.76 0.14 0.27 0.05 1.04 0.18 0.6 0.11 0.44 0.08 1.05 0.18 0.43 0.07 0.61 0.11 1.05 0.17 0.25 0.04 1.83 0.29 0.09 0.01 0.96 0.16 0.97 0.15 0.07 0.01 1.05 0.16 0.8 0.12 0.25 0.04 1.05 0.15 0.64 0.09 1.47 0.21 0.46 0.06 1.65 0.23 0.29 0.03 1.81 0.24 0.13 0.01 3.05 0.37 0.84 0.09 0.22 0.03 1.06 0.12 0.68 0.07 0.38 0.05 1.06 0.11 0.51 0.05 0.56 0.06 2.13 0.21 1.07 0.1 0.16 0.01 0.91 0.09 1.05 0.09 0.02 0.01 1.95 0.15 0.19 0.02 3.76 0.27 0.53 0.04 1.08 0.07c19.23,1.22 38.96,0.85 59.24,-1.34 -0.82,-2.29 -2.35,-4.56 -4.71,-6.79 -5.66,-5.34 -15.56,-10.48 -30.95,-15.29l-0.46 -0.19c-29.86,-11.49 -46.81,-26.89 -65.79,-44.13 -5.07,-4.6 -10.32,-9.37 -16,-14.21 -29.35,-0.43 -57.38,2.66 -80.39,8.99zm34.66 303.85c0.77,9.44 1.25,18.98 1.25,28.64l0 246.5c0,25.06 -9.29,46.43 -27.86,64.07 -18.56,17.63 -39.46,26.46 -62.67,26.46 -32.5,0 -58.5,-14.86 -77.99,-44.57 -4.65,1.86 -8.82,3.94 -12.53,6.27 -3.72,2.32 -7.43,4.41 -11.14,6.27 -22.29,10.22 -45.04,18.11 -68.25,23.68 -24.14,5.57 -49.68,8.35 -76.59,8.35 -69.64,0 -131.85,-18.8 -186.63,-56.4 -54.77,-37.6 -95.62,-86.11 -122.55,-145.55 -9.29,-21.35 -16.56,-43.16 -21.67,-65.45 -5.1,-22.28 -7.58,-45.49 -7.58,-69.63 0,-24.14 2.48,-47.35 7.58,-69.64 5.11,-22.28 12.38,-44.11 21.67,-65.45 16.82,-37.7 39.08,-70.87 66.76,-99.51 -12.19,-8.09 -24.28,-16.4 -36.27,-24.94 -17.04,-7.59 -23.24,-20.32 -22,-36.57 -10.89,-213.52 -72.37,-343.82 103.27,-243.13 149.57,95.47 295.94,172.15 437.75,223.71l-0.11 0.18c-2.04,3.9 -0.53,8.73 3.37,10.77 40.48,21.16 82.05,39.02 125.77,49.97 43.76,10.97 89.73,15.05 138.98,8.74 0.63,-0.02 1.25,-0.13 1.83,-0.28 -44.13,182.24 -33.98,209.18 -181.11,206 -196.12,-12.39 -371.01,-71.3 -528.93,-167.38 5.42,59.93 24.63,107.16 61.21,138.19 -1.7,3.3 -3.25,6.7 -4.79,10.17 -8.36,19.02 -12.54,38.76 -12.54,59.19 0,21.36 4.33,41.55 13.16,60.58 8.82,19.03 20.42,35.52 34.81,49.44 14.39,13.93 30.95,25.06 49.52,33.43 18.57,8.35 37.6,12.53 57.1,12.53 21.36,0 41.48,-3.94 60.5,-11.84 19.04,-7.89 35.59,-18.8 49.53,-32.73 13.92,-13.92 25.06,-30.41 33.42,-49.44 8.36,-19.03 12.54,-39.68 12.54,-61.97 0,-6.04 -0.31,-12.02 -1.09,-17.93 65.46,1 126.27,-2.64 182.29,-10.71zm2633.58 -520.07c24.87,0 46.04,8.83 63.28,26.47 17.23,17.65 26.58,39.47 28.55,65.46l0 550.13c0,18.56 5.91,34.35 18.21,47.34 12.07,12.99 27.33,19.5 45.8,19.5 24.12,0 45.29,8.36 63.27,25.05 18.21,16.72 27.81,37.61 28.8,62.68 0,22.28 -7.88,42.03 -23.14,59.21 -15.26,17.16 -34.96,27.62 -59.09,31.31l-19.69 0c-32.5,0 -63.02,-6.72 -91.82,-20.18 -28.81,-13.47 -53.91,-31.35 -75.83,-53.62 -21.91,-22.28 -39.14,-48.27 -51.45,-77.98 -12.55,-29.72 -18.95,-60.81 -18.95,-93.31l0 -555.7c2.71,-23.21 12.55,-43.17 29.3,-59.89 16.74,-16.72 37.66,-25.52 62.77,-26.47zm-284.33 2.8c24.13,0 44.81,9.04 62.04,27.16 17.23,18.09 25.85,39.21 25.85,63.36 0,24.12 -8.62,45.24 -25.85,63.36 -17.23,18.09 -37.91,27.15 -62.04,27.15 -26.83,-0.93 -48.74,-9.5 -65.97,-25.75 -17.23,-16.27 -25.85,-39.24 -25.85,-68.95 0.98,-24.12 10.34,-44.56 28.55,-61.28 18.22,-16.71 39.14,-25.06 63.27,-25.06zm0 213.07c24.13,0 44.57,8.84 60.56,26.47 16.5,17.65 25.36,39 27.33,64.08l0 493c0,25.08 -7.88,45.96 -23.63,62.67 -15.76,16.73 -37.17,26 -64.26,27.88 -24.12,0 -44.56,-7.44 -61.05,-22.31 -16.74,-14.85 -27.08,-35.74 -30.77,-62.66l0 -504.17c1.97,-24.12 11.57,-44.09 29.29,-59.86 17.48,-15.81 38.41,-24.15 62.53,-25.09zm-757.49 -214.47c24.13,0 44.8,8.34 62.04,25.06 16.98,16.72 26.58,38.56 28.55,65.46l0 160.17c21.17,-13.93 46.28,-23.69 75.09,-29.25 28.8,-5.57 56.12,-8.34 82.22,-8.34 45.54,0 88.62,8.34 129.48,25.05 40.87,16.72 76.56,39.94 107.33,69.65 30.53,29.71 54.9,64.52 73.12,104.45 17.97,39.91 27.07,82.62 27.07,128.11l0 254.87c0,25.09 -8.61,46.43 -25.85,64.08 -17.23,17.62 -38.64,26.91 -64.75,27.84 -24.12,0 -44.56,-8.12 -61.3,-24.37 -16.74,-16.25 -26.84,-36.9 -30.53,-61.99l0 -250.68c0,-20.41 -3.94,-40.14 -11.82,-59.18 -7.87,-19.03 -18.95,-35.75 -32.74,-50.15 -14.03,-14.38 -30.28,-25.75 -48.74,-34.12 -18.71,-8.33 -39.13,-12.52 -61.3,-12.52 -41.85,0 -77.31,14.39 -106.6,43.17 -29.29,28.77 -46.04,64.05 -50.71,105.83l0 252.08c0,25.09 -8.61,46.43 -25.85,64.08 -17.23,17.62 -38.65,26.91 -64.75,27.84 -23.14,0 -43.08,-8.12 -59.32,-24.37 -16.25,-16.25 -26.59,-36.9 -31.26,-61.99l0 -715.83c1.97,-23.21 10.83,-43.17 27.32,-59.89 16.25,-16.72 37.17,-25.06 63.27,-25.06zm-531.99 206.13c44.56,0 87.15,8.12 128.01,24.36 40.87,16.25 76.56,39.01 107.33,68.25 30.53,29.24 55.15,63.83 73.86,103.76 18.46,39.91 27.82,83.08 27.82,129.51l0 257.65c0,24.12 -8.62,45.03 -25.86,62.67 -17.23,17.63 -38.15,26.92 -63.27,27.85 -25.1,0 -46.77,-8.13 -64.75,-24.38 -18.21,-16.25 -27.32,-36.9 -27.32,-61.95l0 -250.71c0,-21.35 -3.94,-41.53 -11.82,-60.56 -7.88,-19.06 -18.96,-35.53 -33.23,-49.46 -14.53,-13.91 -31.26,-25.06 -50.22,-33.43 -18.95,-8.34 -39.63,-12.53 -62.04,-12.53 -20.44,0 -39.88,3.96 -58.59,11.85 -18.45,7.9 -34.7,18.34 -48.74,31.33 -13.79,13 -24.87,28.78 -33.23,47.37 -8.36,18.56 -12.55,38.06 -12.55,58.49l0 253.47c0,24.12 -9.35,45.27 -27.83,63.36 -18.7,18.09 -39.87,27.15 -64.25,27.15 -24.12,0 -45.29,-8.34 -64,-25.06 -18.46,-16.71 -27.82,-37.14 -27.82,-61.27l0 -250.71c0.98,-46.41 10.09,-90.06 27.07,-130.9 17.24,-40.87 40.87,-76.61 71.15,-107.23 30.28,-30.64 65.73,-54.79 106.59,-72.42 40.87,-17.65 85.43,-26.46 133.68,-26.46zm-534.95 -210.31c25.12,0 46.77,9.28 64.75,27.86 18.22,18.57 27.33,40.38 27.33,65.46l0 701.9c0,25.99 -9.11,48.06 -27.33,66.18 -17.97,18.09 -39.62,27.15 -64.75,27.15 -26.83,0 -49.22,-9.06 -67.45,-27.15 -18.22,-18.12 -27.07,-40.18 -27.07,-66.18l0 -701.9c0,-25.08 8.85,-46.89 27.07,-65.46 18.23,-18.58 40.62,-27.86 67.45,-27.86zm-1774.2 -1.38c26.1,0 47.75,9.03 65.48,27.15 17.47,18.1 27.33,40.62 29.29,67.55l0 111.42 239.54 0c26.83,0 48.74,9.28 65.47,27.85 16.5,18.55 25.12,40.39 25.12,65.45 0,24.15 -9.35,45.71 -28.06,64.77 -18.47,19.03 -39.39,28.53 -62.53,28.53l-239.54 0 0 153.19c0,21.37 3.95,41.56 11.83,60.59 7.87,19.02 18.71,35.99 32.74,50.83 13.79,14.88 30.28,26.47 49.48,34.83 18.95,8.34 39.63,12.53 61.8,12.53 24.12,0 44.79,-3.25 62.03,-9.75 17.24,-6.5 32.25,-16.25 45.29,-29.25 19.45,-16.71 41.12,-25.3 64.75,-25.77 23.64,-0.47 45.79,8.59 66.23,27.15 9.11,8.37 16.25,17.88 20.92,28.55 4.44,10.69 7.15,21.82 7.64,33.44 0.49,11.59 -1.23,22.96 -4.92,34.11 -3.7,11.13 -9.84,20.89 -18.22,29.25 -32.5,31.56 -68.19,55.72 -107.09,72.42 -39.13,16.69 -80.75,25.06 -125.3,25.06 -48.51,0 -93.8,-8.13 -136.63,-24.38 -42.6,-16.25 -80.26,-39.46 -112.76,-69.64 -32.49,-30.18 -58.34,-66.37 -77.3,-108.64 -18.95,-42.25 -29.04,-89.36 -30.03,-141.36l0 -458.18c0,-25.06 9.6,-45.96 28.56,-62.69 19.2,-16.71 41.12,-25.05 66.22,-25.05zm-309.2 213.07c25.11,0 46.04,9.52 62.78,28.55 16.49,19.03 25.11,39.24 25.11,60.59 0,24.14 -9.11,45.27 -27.33,63.36 -17.97,18.11 -38.15,27.15 -60.56,27.15l-239.52 0c-11.08,0 -20.68,3.25 -28.56,9.75 -7.87,6.5 -11.82,15.79 -11.82,27.87 0,13 3.94,22.97 11.82,29.94 7.88,6.96 17.48,10.43 28.56,10.43l157.3 0c28.81,0 55.64,6.06 80.26,18.12 24.37,12.06 45.78,28.08 64,48.06 17.97,19.94 32.25,41.09 42.34,63.36 10.34,22.28 15.51,47.34 15.51,75.21 0.74,30.62 -4.43,59.4 -16.25,86.34 -11.57,26.93 -27.08,49.68 -46.54,68.24 -19.44,18.58 -42.33,33.2 -68.19,43.86 -26.08,10.69 -55.38,16.03 -87.88,16.03l-256.03 0c-24.38,0 -45.05,-8.37 -62.78,-25.06 -17.73,-16.71 -26.59,-37.61 -26.59,-62.68 0,-23.21 8.37,-44.34 25.11,-63.36 16.74,-19.03 37.17,-29.02 61.3,-29.96l256.27 0c25.12,0 37.67,-11.13 37.67,-33.41 0,-25.09 -12.55,-37.61 -37.67,-37.61l-153.12 0c-27.82,0 -54.16,-5.81 -78.78,-17.41 -24.61,-11.59 -45.79,-27.61 -64,-48.05 -18.22,-20.44 -32.25,-42.71 -42.59,-66.84 -10.1,-24.15 -15.27,-50.15 -15.27,-77.99 0,-27.86 5.41,-54.79 16,-80.79 10.83,-25.99 25.36,-48.74 43.81,-68.25 18.72,-19.49 40.62,-35.03 65.49,-46.65 25.1,-11.59 52.43,-17.88 82.22,-18.81l247.9 0zm-888.53 -1.37c44.59,0 87.22,8.12 128.09,24.36 40.87,16.25 76.56,39.01 107.33,68.25 30.53,29.24 55.14,63.83 73.85,103.76 18.47,39.91 27.83,83.08 27.83,129.51l0 257.65c0,24.12 -8.62,45.03 -25.86,62.67 -17.23,17.63 -38.15,26.92 -63.27,27.85 -25.1,0 -46.77,-8.13 -64.74,-24.38 -18.23,-16.25 -27.33,-36.9 -27.33,-61.95l0 -250.71c0,-21.35 -3.94,-41.53 -11.82,-60.56 -7.88,-19.06 -18.95,-35.53 -33.49,-49.46 -14.27,-13.91 -31.02,-25.06 -49.97,-33.43 -19.08,-8.34 -39.73,-12.53 -62.01,-12.53 -20.44,0 -39.93,3.96 -58.49,11.85 -18.59,7.9 -34.84,18.34 -48.74,31.33 -13.93,13 -25.08,28.78 -33.43,47.37 -8.37,18.56 -12.53,38.06 -12.53,58.49l0 253.47c0,24.12 -9.29,45.27 -27.87,63.36 -18.56,18.09 -39.93,27.15 -64.06,27.15 -24.15,0 -45.5,-8.34 -64.05,-25.06 -18.59,-16.71 -27.87,-37.14 -27.87,-61.27l0 -250.71c0.93,-46.41 9.96,-90.06 27.15,-130.9 17.18,-40.87 40.86,-76.61 71.02,-107.23 30.18,-30.64 65.71,-54.79 106.55,-72.42 40.86,-17.65 85.42,-26.46 133.69,-26.46z"/>
 </g>
</svg>
